<svg width="128" height="128" viewBox="0 0 128 128" fill="none" xmlns="http://www.w3.org/2000/svg">
  <rect width="128" height="128" rx="24" fill="#111216"/>

  <!-- subtle guide lanes -->
  <line x1="20" y1="92" x2="114" y2="104" stroke="#2A2D36" stroke-width="2" stroke-linecap="round"/>
  <line x1="20" y1="76" x2="114" y2="84" stroke="#2A2D36" stroke-width="2" stroke-linecap="round"/>
  <line x1="20" y1="62" x2="114" y2="67" stroke="#3A3E4B" stroke-width="2" stroke-linecap="round"/>
  <line x1="20" y1="50" x2="114" y2="53" stroke="#3A3E4B" stroke-width="2" stroke-linecap="round"/>
  <line x1="20" y1="40" x2="114" y2="41.5" stroke="#3A3E4B" stroke-width="2" stroke-linecap="round" opacity="0.9"/>

  <!-- risset streams: thick/opaque at bottom, thinner/fainter at top -->
  <line x1="18" y1="92" x2="114" y2="104" stroke="#FF6B6B" stroke-width="9" stroke-linecap="round" opacity="1"/>
  <line x1="24" y1="76" x2="114" y2="84" stroke="#FF6B6B" stroke-width="7" stroke-linecap="round" opacity="0.8"/>
  <line x1="30" y1="62" x2="114" y2="67" stroke="#FF6B6B" stroke-width="5.5" stroke-linecap="round" opacity="0.6"/>
  <line x1="36" y1="50" x2="114" y2="53" stroke="#FF6B6B" stroke-width="4" stroke-linecap="round" opacity="0.42"/>
  <line x1="42" y1="40" x2="114" y2="41.5" stroke="#FF6B6B" stroke-width="3" stroke-linecap="round" opacity="0.26"/>

  <!-- vertical onset ticks, fanning diagonally to suggest acceleration -->
  <line x1="34" y1="86" x2="34" y2="98" stroke="#F5576C" stroke-width="3" stroke-linecap="round"/>
  <line x1="58" y1="89" x2="58" y2="101" stroke="#F5576C" stroke-width="3" stroke-linecap="round"/>
  <line x1="82" y1="92" x2="82" y2="104" stroke="#F5576C" stroke-width="3" stroke-linecap="round"/>

  <line x1="30" y1="71" x2="30" y2="81" stroke="#F5576C" stroke-width="2.6" stroke-linecap="round"/>
  <line x1="48" y1="73" x2="48" y2="83" stroke="#F5576C" stroke-width="2.6" stroke-linecap="round"/>
  <line x1="66" y1="74.5" x2="66" y2="84.5" stroke="#F5576C" stroke-width="2.6" stroke-linecap="round"/>
  <line x1="84" y1="76" x2="84" y2="86" stroke="#F5576C" stroke-width="2.6" stroke-linecap="round"/>

  <line x1="34" y1="57" x2="34" y2="65" stroke="#F5576C" stroke-width="2.2" stroke-linecap="round"/>
  <line x1="48" y1="58" x2="48" y2="66" stroke="#F5576C" stroke-width="2.2" stroke-linecap="round"/>
  <line x1="62" y1="59" x2="62" y2="67" stroke="#F5576C" stroke-width="2.2" stroke-linecap="round"/>
  <line x1="76" y1="60" x2="76" y2="68" stroke="#F5576C" stroke-width="2.2" stroke-linecap="round"/>
  <line x1="90" y1="61" x2="90" y2="69" stroke="#F5576C" stroke-width="2.2" stroke-linecap="round"/>

  <line x1="40" y1="46" x2="40" y2="52.5" stroke="#F5576C" stroke-width="1.9" stroke-linecap="round" opacity="0.9"/>
  <line x1="52" y1="46.5" x2="52" y2="53" stroke="#F5576C" stroke-width="1.9" stroke-linecap="round" opacity="0.9"/>
  <line x1="64" y1="47" x2="64" y2="53.5" stroke="#F5576C" stroke-width="1.9" stroke-linecap="round" opacity="0.9"/>
  <line x1="76" y1="47.5" x2="76" y2="54" stroke="#F5576C" stroke-width="1.9" stroke-linecap="round" opacity="0.9"/>
  <line x1="88" y1="48" x2="88" y2="54.5" stroke="#F5576C" stroke-width="1.9" stroke-linecap="round" opacity="0.9"/>

  <line x1="46" y1="37" x2="46" y2="42.5" stroke="#F5576C" stroke-width="1.6" stroke-linecap="round" opacity="0.7"/>
  <line x1="56" y1="37.2" x2="56" y2="42.7" stroke="#F5576C" stroke-width="1.6" stroke-linecap="round" opacity="0.7"/>
  <line x1="66" y1="37.4" x2="66" y2="42.9" stroke="#F5576C" stroke-width="1.6" stroke-linecap="round" opacity="0.7"/>
  <line x1="76" y1="37.6" x2="76" y2="43.1" stroke="#F5576C" stroke-width="1.6" stroke-linecap="round" opacity="0.7"/>
  <line x1="86" y1="37.8" x2="86" y2="43.3" stroke="#F5576C" stroke-width="1.6" stroke-linecap="round" opacity="0.7"/>

  <!-- left anchor to hint at stacked time lanes -->
  <line x1="18" y1="28" x2="18" y2="102" stroke="#3A3E4B" stroke-width="2.5" stroke-linecap="round"/>
</svg>
