<?xml version="1.0" standalone="no"?>
<svg xmlns="http://www.w3.org/2000/svg"
  width="100"
  height="100"
  viewBox="0 0 100 100"
  preserveAspectRatio="xMidYMid meet">

  <!-- Background -->
  <rect width="100" height="100" rx="20" fill="#0a0a0f"/>

  <!-- Centered hexagon with finger snap -->
  <g transform="translate(50, 50) scale(0.08) translate(-300, -469)">
    <!-- regular hexagon (equilateral) -->
    <polygon
      points="300,177 553,323 553,615 300,761 47,615 47,323"
      fill="#0096FF"/>

    <!-- snapping finger art -->
    <g transform="translate(0.000000,938.000000) scale(0.100000,-0.100000)"
       fill="#ffffff"
       stroke="#ffffff"
       stroke-width="400"
       stroke-linejoin="round">
      <path d="M3364 8875 c-114 -37 -182 -78 -269 -162 -48 -46 -87 -103 -185 -273
-24 -41 -49 -82 -55 -90 -7 -8 -23 -35 -36 -60 -13 -25 -28 -49 -32 -55 -17
-20 -57 -91 -86 -150 l-29 -59 -21 46 c-11 26 -21 51 -21 57 0 5 -3 11 -7 13
-5 2 -19 23 -32 48 -13 25 -55 83 -93 130 -204 254 -473 401 -738 403 -186 1
-337 -56 -434 -163 -106 -117 -111 -252 -20 -545 48 -158 51 -174 70 -404 15
-185 15 -499 -2 -641 -7 -64 -24 -209 -30 -250 -5 -35 -36 -179 -55 -255 -35
-139 -157 -511 -176 -540 -7 -11 -13 -26 -13 -33 0 -7 -19 -55 -41 -105 -23
-51 -48 -108 -57 -127 -62 -147 -356 -713 -429 -828 -18 -29 -33 -55 -33 -58
0 -3 -9 -18 -20 -34 -43 -60 -96 -162 -190 -365 -29 -64 -105 -253 -133 -335
-113 -325 -173 -666 -176 -1000 -4 -447 81 -877 256 -1290 37 -87 157 -328
195 -390 193 -319 424 -563 730 -774 53 -36 101 -66 106 -66 6 0 12 -4 14 -9
3 -9 289 -154 323 -164 11 -3 52 -17 90 -32 39 -15 81 -30 95 -32 14 -3 30 -9
35 -13 16 -12 401 -107 505 -125 52 -8 118 -20 145 -26 80 -17 455 -23 570
-10 314 38 552 109 821 247 270 139 501 319 749 588 111 119 333 449 375 556
7 19 17 40 22 47 12 15 138 321 145 350 3 13 9 23 13 23 4 0 11 11 14 25 4 14
24 63 45 108 21 45 55 119 75 165 20 45 52 119 72 165 20 45 49 109 64 142 15
33 44 98 65 145 46 107 53 123 109 244 25 54 46 102 46 106 0 4 18 47 41 96
176 382 190 429 190 599 -1 257 -129 481 -333 583 -46 22 -104 46 -129 51 -96
23 -274 8 -327 -27 -35 -23 -19 -26 39 -7 72 24 245 25 314 1 64 -22 155 -68
155 -78 0 -4 6 -8 14 -8 8 0 18 -5 22 -12 5 -7 3 -8 -6 -3 -9 6 -11 4 -6 -4 5
-7 11 -10 14 -7 8 8 52 -35 52 -50 0 -7 9 -16 21 -19 13 -4 18 -12 15 -21 -3
-8 -2 -13 3 -10 12 8 53 -63 45 -76 -4 -6 -3 -8 3 -5 6 4 21 -23 36 -61 43
-111 42 -106 26 -97 -11 7 -12 6 -2 -7 18 -21 29 -223 14 -233 -9 -5 -9 -10
-1 -20 8 -10 7 -23 -5 -50 -8 -21 -15 -45 -15 -54 0 -9 -9 -34 -20 -56 -11
-22 -20 -43 -20 -47 0 -4 -12 -33 -26 -65 -15 -32 -33 -73 -41 -91 -8 -18 -19
-30 -25 -26 -6 4 -8 -1 -4 -14 8 -23 -10 -66 -23 -58 -4 3 -6 -7 -4 -22 4 -22
2 -24 -7 -12 -10 13 -11 12 -6 -3 3 -11 -11 -50 -34 -97 -22 -44 -40 -89 -40
-101 0 -15 -4 -19 -16 -15 -9 3 -12 2 -9 -5 11 -16 -48 -150 -63 -144 -9 3
-10 -3 -5 -23 6 -24 5 -26 -10 -14 -14 12 -15 10 -10 -22 3 -22 2 -36 -5 -36
-6 0 -13 -13 -17 -29 -3 -16 -13 -32 -21 -35 -9 -3 -12 -10 -9 -16 3 -5 1 -10
-5 -10 -6 0 -8 -5 -4 -11 6 -10 -23 -88 -37 -99 -3 -3 -12 -22 -18 -42 -7 -21
-17 -40 -22 -43 -5 -4 -9 -13 -9 -20 0 -8 -11 -38 -24 -67 -13 -29 -40 -88
-58 -131 -19 -42 -37 -75 -40 -71 -3 3 -6 -1 -5 -8 0 -7 -1 -24 -2 -38 -1 -20
-3 -22 -11 -10 -9 13 -10 13 -10 -1 0 -8 -9 -34 -20 -57 -11 -22 -20 -48 -20
-56 0 -22 -18 -29 -23 -9 -2 10 -3 6 -1 -9 2 -15 -2 -29 -9 -32 -9 -3 -8 -5 1
-5 10 -1 9 -9 -6 -33 -11 -18 -23 -47 -27 -65 -3 -17 -13 -37 -21 -43 -7 -7
-11 -16 -8 -21 3 -5 -9 -40 -28 -77 -18 -37 -32 -70 -30 -74 1 -5 -2 -8 -8 -8
-5 0 -10 -8 -10 -17 0 -16 -2 -16 -10 -3 -8 11 -9 8 -4 -12 4 -18 2 -28 -5
-28 -6 0 -11 -5 -11 -11 0 -15 -80 -143 -92 -147 -4 -2 -6 -8 -3 -12 3 -5 -4
-15 -15 -23 -11 -7 -18 -16 -15 -19 7 -7 -82 -137 -117 -169 -15 -15 -25 -28
-23 -31 3 -2 -20 -31 -51 -64 -31 -32 -63 -69 -72 -82 -8 -13 -21 -21 -29 -18
-8 4 -11 1 -7 -5 8 -13 -55 -81 -68 -73 -5 3 -7 2 -6 -3 3 -11 -60 -73 -74
-73 -6 0 -9 -3 -5 -6 12 -12 -75 -78 -88 -66 -5 4 -5 2 -2 -5 7 -11 -143 -133
-164 -133 -5 0 -9 -5 -9 -11 0 -6 -9 -9 -20 -6 -11 3 -18 1 -15 -3 6 -9 -110
-90 -129 -90 -6 0 -20 -7 -30 -15 -10 -8 -23 -12 -29 -8 -6 3 -8 2 -4 -3 3 -5
-16 -19 -41 -31 -92 -44 -181 -83 -189 -83 -4 0 -21 -7 -38 -16 -16 -9 -37
-17 -45 -19 -8 -2 -62 -17 -120 -35 -106 -32 -147 -41 -187 -44 -13 0 -23 -5
-23 -10 0 -5 -20 -6 -45 -4 -27 4 -45 1 -45 -5 0 -6 -16 -7 -40 -4 -22 3 -38
1 -35 -3 7 -12 -253 -24 -348 -16 -136 11 -189 17 -257 27 -36 6 -82 12 -102
14 -20 3 -68 12 -105 20 -37 9 -77 18 -87 21 -89 18 -164 37 -178 45 -10 5
-24 9 -33 9 -21 0 -168 44 -250 75 -38 15 -78 29 -87 32 -10 3 -18 9 -18 14 0
5 -9 9 -21 9 -11 0 -17 4 -14 10 3 5 0 7 -9 4 -16 -6 -146 53 -146 67 0 5 -7
6 -15 3 -8 -4 -15 -2 -15 3 0 9 -54 39 -56 31 0 -1 -8 5 -18 15 -10 9 -24 17
-32 17 -8 0 -14 5 -14 10 0 6 -5 10 -11 10 -12 0 -130 77 -173 114 -15 13 -24
26 -20 28 5 3 4 3 -3 2 -7 -2 -19 3 -27 11 -8 8 -17 15 -19 15 -12 0 -87 77
-87 90 0 13 -2 13 -10 0 -9 -13 -14 -7 -11 13 0 4 -4 7 -10 7 -16 0 -75 63
-71 75 2 6 1 7 -3 3 -10 -10 -67 51 -59 64 4 6 3 8 -3 5 -10 -7 -93 76 -93 93
0 6 -4 10 -8 10 -4 0 -15 12 -24 28 -9 15 -30 42 -47 61 -17 19 -31 43 -31 53
0 11 -5 16 -10 13 -6 -3 -10 0 -10 9 0 8 -4 16 -8 18 -11 4 -76 107 -106 166
-41 84 -70 132 -77 132 -4 0 -11 15 -14 32 -4 18 -23 65 -42 103 -19 39 -50
113 -69 165 -19 52 -39 105 -45 118 -5 13 -7 27 -4 32 3 5 1 11 -5 15 -5 3
-10 15 -10 26 0 10 -5 19 -11 19 -8 0 -7 6 2 18 7 9 9 13 4 9 -10 -9 -44 102
-45 146 0 16 -4 26 -10 22 -6 -4 -10 9 -10 30 0 20 -7 61 -16 90 -8 30 -14 60
-13 67 1 7 -3 33 -10 58 -7 25 -14 84 -15 132 0 49 -4 88 -8 88 -4 0 -7 19 -7
43 1 23 0 125 0 227 0 102 2 205 4 230 3 25 7 76 10 114 2 38 9 83 14 100 6
17 9 45 8 63 -2 17 1 30 5 27 4 -3 9 7 9 23 3 49 6 68 24 141 9 40 21 70 25
67 5 -3 6 3 3 13 -2 10 5 46 16 80 12 34 21 69 21 77 0 9 5 13 11 10 6 -4 10
-1 8 6 -4 31 2 58 14 71 8 7 12 18 10 25 -2 6 5 30 16 52 12 22 21 49 21 61 0
11 5 20 10 20 6 0 10 8 10 18 0 10 3 22 7 26 4 4 8 13 8 19 1 13 19 54 66 153
16 34 29 68 29 75 0 7 3 9 7 5 4 -4 12 8 18 26 18 59 87 176 101 171 9 -3 11
2 7 18 -4 14 -2 20 4 16 6 -4 10 1 9 11 0 9 5 16 12 14 8 -1 11 2 8 7 -3 5 2
23 10 41 13 24 19 29 25 19 7 -10 9 -9 7 6 -2 24 31 105 44 105 4 0 8 6 8 13
0 6 5 19 10 27 9 13 11 13 21 0 8 -12 9 -11 4 6 -3 14 2 35 15 55 11 19 23 41
26 49 20 49 36 80 40 80 3 0 2 -5 -2 -12 -4 -7 -3 -8 5 -4 6 4 9 11 6 16 -7
11 75 170 87 170 5 0 7 4 4 9 -3 4 28 76 69 159 41 83 75 156 75 162 0 6 5 8
11 5 6 -4 8 -14 5 -22 -3 -8 -1 -11 5 -8 6 4 7 19 4 35 -3 16 -2 37 3 47 13
25 29 66 30 77 0 5 4 12 9 15 5 3 15 25 21 49 7 23 17 40 22 37 6 -4 10 4 11
17 1 42 9 70 28 97 10 14 16 32 13 40 -2 8 0 11 6 7 6 -4 8 2 4 16 -3 13 -1
19 5 15 6 -4 10 -1 10 6 -3 26 15 97 24 97 6 0 7 5 4 10 -3 6 -1 10 5 10 6 0
8 4 5 10 -3 5 0 20 7 32 6 13 14 34 15 48 6 42 24 90 34 90 6 0 8 4 5 8 -9 14
19 144 28 135 5 -4 6 -3 2 4 -8 14 3 65 13 59 3 -2 7 23 9 56 1 33 5 65 9 72
4 6 6 19 5 28 -2 10 2 34 8 55 19 64 25 194 24 533 -1 316 -15 507 -42 581 -5
13 -8 37 -6 54 2 23 1 26 -7 15 -8 -11 -9 -6 -6 20 3 19 3 29 0 23 -2 -7 -9
-13 -14 -13 -6 0 -7 4 -4 10 3 5 1 18 -4 29 -19 35 -41 134 -46 210 -3 42 -8
86 -11 99 -2 12 0 22 5 22 6 0 8 6 5 14 -9 23 45 136 62 129 9 -3 14 2 14 14
0 27 33 55 56 47 14 -4 15 -3 6 4 -10 7 -8 12 10 24 37 23 102 52 112 50 4 -2
14 2 22 9 8 6 20 9 28 6 7 -3 18 -1 23 4 13 13 225 24 250 14 10 -5 24 -7 32
-6 33 6 251 -81 251 -99 0 -6 4 -9 9 -5 5 3 16 -2 24 -10 9 -8 19 -15 22 -15
4 0 20 -10 37 -21 23 -17 27 -24 16 -31 -9 -6 -6 -7 10 -3 18 5 31 -2 64 -34
22 -23 45 -41 50 -41 5 0 6 -4 3 -10 -3 -5 1 -10 9 -10 9 0 16 -4 16 -8 0 -5
20 -29 45 -53 25 -24 43 -49 40 -56 -2 -7 2 -10 11 -6 7 3 14 0 14 -6 0 -6 -6
-11 -12 -11 -7 0 -4 -6 7 -12 27 -16 45 -34 45 -47 0 -6 5 -11 11 -11 6 0 8
-7 5 -16 -4 -10 -2 -13 6 -8 8 5 9 2 5 -9 -3 -10 -2 -17 3 -17 6 0 22 -25 36
-55 28 -58 46 -79 65 -73 12 4 44 54 76 118 9 19 24 42 33 50 15 15 33 48 44
83 3 10 10 15 16 12 6 -3 7 1 4 9 -3 9 -1 16 5 16 6 0 11 6 11 13 0 7 9 19 19
27 11 7 18 17 16 20 -3 4 19 47 48 96 29 49 59 103 67 119 20 40 165 185 184
185 9 0 16 5 16 11 0 6 9 9 19 6 15 -3 18 -1 14 11 -5 11 -2 14 11 9 10 -4 15
-3 11 3 -6 10 13 15 50 12 17 -2 18 0 5 9 -12 9 -11 10 8 6 12 -3 20 -1 17 3
-14 23 180 49 228 31 17 -7 27 -7 27 -1 0 14 73 2 133 -22 27 -10 53 -16 58
-13 5 4 9 3 9 -2 0 -4 19 -17 43 -28 51 -24 78 -46 71 -57 -3 -4 2 -5 10 -2 9
3 16 2 16 -2 0 -5 16 -20 36 -33 21 -15 33 -30 30 -38 -3 -8 -2 -11 3 -8 6 3
18 -8 27 -25 10 -16 22 -30 26 -30 4 0 8 -4 8 -10 0 -5 11 -26 25 -46 14 -20
25 -50 25 -66 0 -16 4 -27 9 -23 27 16 54 -191 39 -303 -6 -42 -14 -81 -19
-87 -5 -5 -9 -22 -9 -38 0 -22 -4 -28 -16 -23 -8 3 -13 2 -10 -3 7 -10 -54
-131 -65 -131 -4 0 -10 -14 -14 -30 -4 -17 -10 -28 -14 -25 -5 2 -13 -14 -20
-35 -6 -22 -16 -40 -21 -40 -6 0 -10 -7 -10 -15 0 -14 -33 -38 -42 -30 -5 5
-5 3 -10 -50 -2 -17 -13 -47 -26 -68 -12 -21 -22 -43 -22 -48 0 -6 -4 -7 -10
-4 -6 4 -7 -1 -3 -11 5 -14 3 -16 -11 -11 -14 6 -16 3 -11 -14 5 -16 4 -19 -5
-14 -8 5 -11 3 -8 -6 6 -15 -28 -79 -48 -92 -7 -4 -20 -27 -30 -52 -9 -25 -21
-45 -25 -45 -5 0 -9 -7 -9 -16 0 -9 -17 -44 -37 -77 -41 -66 -82 -140 -109
-197 -9 -19 -19 -37 -23 -40 -4 -3 -13 -20 -20 -37 -7 -18 -18 -30 -24 -26 -5
3 -7 1 -3 -5 3 -6 -3 -26 -15 -46 -11 -20 -19 -41 -17 -48 5 -15 8 -12 383
654 26 46 70 127 155 283 54 99 85 155 120 215 57 98 74 166 74 295 1 129 -17
201 -76 315 -83 162 -261 297 -433 329 -101 19 -250 13 -331 -14z m586 -1210
c-6 -15 -13 -26 -16 -23 -2 3 0 18 6 33 6 15 13 26 16 23 2 -3 0 -18 -6 -33z"/>
      <path d="M3550 8763 c-30 -2 -58 -7 -62 -11 -4 -4 22 -5 57 -4 36 2 65 8 65
13 0 5 -1 8 -2 7 -2 -1 -28 -3 -58 -5z"/>
      <path d="M3435 8740 c3 -5 12 -7 20 -3 21 7 19 13 -6 13 -11 0 -18 -4 -14 -10z"/>
      <path d="M3688 8738 c5 -5 16 -8 23 -6 8 3 3 7 -10 11 -17 4 -21 3 -13 -5z"/>
      <path d="M3755 8710 c4 -6 11 -8 16 -5 14 9 11 15 -7 15 -8 0 -12 -5 -9 -10z"/>
    </g>
  </g>

  <!-- Exploding particle cloud (~50 particles) -->
  <g fill="#ffffff">
    <!-- Core burst - tiny bright particles -->
    <circle cx="50" cy="42" r="1.2" opacity="0.95"/>
    <circle cx="53" cy="44" r="1" opacity="0.9"/>
    <circle cx="47" cy="43" r="1.1" opacity="0.92"/>
    <circle cx="51" cy="46" r="0.9" opacity="0.88"/>
    <circle cx="49" cy="40" r="1" opacity="0.9"/>

    <!-- Inner ring -->
    <circle cx="50" cy="35" r="1.4" opacity="0.85"/>
    <circle cx="56" cy="37" r="1.2" opacity="0.82"/>
    <circle cx="44" cy="36" r="1.3" opacity="0.8"/>
    <circle cx="58" cy="42" r="1.1" opacity="0.78"/>
    <circle cx="42" cy="41" r="1.2" opacity="0.8"/>
    <circle cx="55" cy="48" r="1" opacity="0.75"/>
    <circle cx="45" cy="47" r="1.1" opacity="0.77"/>
    <circle cx="52" cy="38" r="0.9" opacity="0.82"/>
    <circle cx="48" cy="39" r="1" opacity="0.8"/>

    <!-- Middle ring -->
    <circle cx="50" cy="28" r="1.8" opacity="0.7"/>
    <circle cx="62" cy="32" r="1.6" opacity="0.68"/>
    <circle cx="38" cy="30" r="1.5" opacity="0.65"/>
    <circle cx="66" cy="40" r="1.4" opacity="0.6"/>
    <circle cx="34" cy="38" r="1.5" opacity="0.62"/>
    <circle cx="64" cy="50" r="1.3" opacity="0.58"/>
    <circle cx="36" cy="52" r="1.4" opacity="0.6"/>
    <circle cx="58" cy="55" r="1.2" opacity="0.55"/>
    <circle cx="42" cy="56" r="1.3" opacity="0.57"/>
    <circle cx="55" cy="30" r="1.4" opacity="0.65"/>
    <circle cx="45" cy="29" r="1.3" opacity="0.63"/>
    <circle cx="60" cy="36" r="1.2" opacity="0.6"/>
    <circle cx="40" cy="35" r="1.3" opacity="0.62"/>

    <!-- Outer ring -->
    <circle cx="50" cy="20" r="2" opacity="0.55"/>
    <circle cx="68" cy="25" r="1.8" opacity="0.5"/>
    <circle cx="32" cy="24" r="1.7" opacity="0.48"/>
    <circle cx="75" cy="38" r="1.6" opacity="0.45"/>
    <circle cx="25" cy="36" r="1.7" opacity="0.47"/>
    <circle cx="78" cy="52" r="1.5" opacity="0.42"/>
    <circle cx="22" cy="50" r="1.6" opacity="0.44"/>
    <circle cx="72" cy="62" r="1.4" opacity="0.4"/>
    <circle cx="28" cy="64" r="1.5" opacity="0.42"/>
    <circle cx="62" cy="68" r="1.3" opacity="0.38"/>
    <circle cx="38" cy="70" r="1.4" opacity="0.4"/>
    <circle cx="60" cy="22" r="1.5" opacity="0.48"/>
    <circle cx="40" cy="21" r="1.4" opacity="0.46"/>

    <!-- Far scattered particles -->
    <circle cx="50" cy="12" r="1.6" opacity="0.38"/>
    <circle cx="80" cy="30" r="1.4" opacity="0.32"/>
    <circle cx="20" cy="28" r="1.5" opacity="0.34"/>
    <circle cx="85" cy="48" r="1.3" opacity="0.28"/>
    <circle cx="15" cy="46" r="1.4" opacity="0.3"/>
    <circle cx="82" cy="65" r="1.2" opacity="0.25"/>
    <circle cx="18" cy="68" r="1.3" opacity="0.27"/>
    <circle cx="70" cy="78" r="1.1" opacity="0.22"/>
    <circle cx="30" cy="80" r="1.2" opacity="0.24"/>
    <circle cx="55" cy="82" r="1" opacity="0.2"/>
    <circle cx="45" cy="84" r="1.1" opacity="0.22"/>
    <circle cx="88" cy="55" r="1" opacity="0.18"/>
    <circle cx="12" cy="58" r="1.1" opacity="0.2"/>
  </g>
</svg>
