<svg version="1.1" id="Layer_1" xmlns="http://www.w3.org/2000/svg" xmlns:xlink="http://www.w3.org/1999/xlink" x="0px" y="0px"
	 width="100%" viewBox="0 0 260 109" enable-background="new 0 0 260 109" xml:space="preserve">
<path fill="#FEFEFE" opacity="1.000000" stroke="none" 
	d="
M163.000000,110.000000 
	C108.666672,110.000000 54.833340,110.000000 1.000007,110.000000 
	C1.000005,73.666672 1.000005,37.333344 1.000002,1.000012 
	C87.666656,1.000008 174.333313,1.000008 261.000000,1.000004 
	C261.000000,37.333321 261.000000,73.666641 261.000000,109.999985 
	C228.500000,110.000000 196.000000,110.000000 163.000000,110.000000 
M79.972343,47.642265 
	C67.904564,41.333714 57.135662,33.357162 48.334396,22.883175 
	C43.420238,17.035059 40.849689,15.991217 37.436066,18.626263 
	C33.846745,21.396935 34.291874,24.935707 39.126198,30.617910 
	C44.275734,36.670601 49.520649,42.642136 54.896919,48.848824 
	C52.906063,51.404190 49.796944,55.311954 46.780582,59.290051 
	C43.808685,63.209515 43.866577,66.636978 46.816498,68.949059 
	C49.759323,71.255577 53.230274,70.485825 56.225319,66.740761 
	C59.634834,62.477432 62.964325,58.150108 66.125343,54.110355 
	C73.681038,57.736305 80.830650,61.167385 88.107643,64.659592 
	C86.494370,69.599419 84.889854,74.489349 83.301147,79.384407 
	C82.028328,83.306152 82.294655,86.732643 86.704292,88.452820 
	C90.189827,89.812508 93.227020,87.828323 94.790077,83.209976 
	C96.486046,78.198921 98.055397,73.145020 99.666901,68.150299 
	C108.178421,69.353622 116.350830,70.508995 124.981773,71.729202 
	C124.981773,76.939125 124.932892,82.228882 124.996071,87.517288 
	C125.054626,92.418724 127.244904,95.039940 131.071350,94.986778 
	C134.877274,94.933914 136.964142,92.312248 137.007416,87.375641 
	C137.053665,82.097649 137.017838,76.818939 137.017838,71.730026 
	C145.759491,70.497681 153.930191,69.345825 162.352341,68.158516 
	C163.940659,73.078621 165.522873,77.961372 167.092560,82.848152 
	C168.322647,86.677689 170.313797,89.637009 174.950134,88.586861 
	C178.853760,87.702682 180.183517,84.193863 178.648819,79.266220 
	C177.122528,74.365532 175.478836,69.501404 173.896469,64.651398 
	C181.255722,61.128204 188.412476,57.701954 195.884506,54.124767 
	C198.997757,58.103569 202.246964,62.304176 205.549118,66.462761 
	C208.798080,70.554382 212.318542,71.478569 215.259995,68.824890 
	C218.745392,65.680473 217.774490,62.398468 215.189453,59.157059 
	C212.009415,55.169605 208.905731,51.121250 206.183914,47.631180 
	C212.668442,40.871830 218.923782,34.670872 224.783615,28.116316 
	C227.994324,24.524956 227.620270,20.733040 224.434204,18.568216 
	C220.792007,16.093487 217.955826,17.525532 215.393936,20.613323 
	C212.740448,23.811523 210.047546,27.018024 207.048370,29.882111 
	C174.298431,61.156937 124.028900,68.312317 79.972343,47.642265 
z"/>
<path fill="#080808" opacity="1.000000" stroke="none" 
	d="
M80.312759,47.800789 
	C124.028900,68.312317 174.298431,61.156937 207.048370,29.882111 
	C210.047546,27.018024 212.740448,23.811523 215.393936,20.613323 
	C217.955826,17.525532 220.792007,16.093487 224.434204,18.568216 
	C227.620270,20.733040 227.994324,24.524956 224.783615,28.116316 
	C218.923782,34.670872 212.668442,40.871830 206.183914,47.631180 
	C208.905731,51.121250 212.009415,55.169605 215.189453,59.157059 
	C217.774490,62.398468 218.745392,65.680473 215.259995,68.824890 
	C212.318542,71.478569 208.798080,70.554382 205.549118,66.462761 
	C202.246964,62.304176 198.997757,58.103569 195.884506,54.124767 
	C188.412476,57.701954 181.255722,61.128204 173.896469,64.651398 
	C175.478836,69.501404 177.122528,74.365532 178.648819,79.266220 
	C180.183517,84.193863 178.853760,87.702682 174.950134,88.586861 
	C170.313797,89.637009 168.322647,86.677689 167.092560,82.848152 
	C165.522873,77.961372 163.940659,73.078621 162.352341,68.158516 
	C153.930191,69.345825 145.759491,70.497681 137.017838,71.730026 
	C137.017838,76.818939 137.053665,82.097649 137.007416,87.375641 
	C136.964142,92.312248 134.877274,94.933914 131.071350,94.986778 
	C127.244904,95.039940 125.054626,92.418724 124.996071,87.517288 
	C124.932892,82.228882 124.981773,76.939125 124.981773,71.729202 
	C116.350830,70.508995 108.178421,69.353622 99.666901,68.150299 
	C98.055397,73.145020 96.486046,78.198921 94.790077,83.209976 
	C93.227020,87.828323 90.189827,89.812508 86.704292,88.452820 
	C82.294655,86.732643 82.028328,83.306152 83.301147,79.384407 
	C84.889854,74.489349 86.494370,69.599419 88.107643,64.659592 
	C80.830650,61.167385 73.681038,57.736305 66.125343,54.110355 
	C62.964325,58.150108 59.634834,62.477432 56.225319,66.740761 
	C53.230274,70.485825 49.759323,71.255577 46.816498,68.949059 
	C43.866577,66.636978 43.808685,63.209515 46.780582,59.290051 
	C49.796944,55.311954 52.906063,51.404190 54.896919,48.848824 
	C49.520649,42.642136 44.275734,36.670601 39.126198,30.617910 
	C34.291874,24.935707 33.846745,21.396935 37.436066,18.626263 
	C40.849689,15.991217 43.420238,17.035059 48.334396,22.883175 
	C57.135662,33.357162 67.904564,41.333714 80.312759,47.800789 
z"/>
</svg>