{"accessors" : [{"bufferView" : 0, "byteOffset" : 0, "componentType" : 5123, "count" : 31347, "type" : "SCALAR", "max" : [31346], "min" : [0]}, {"bufferView" : 1, "byteOffset" : 0, "componentType" : 5126, "count" : 31347, "type" : "VEC3", "max" : [10.335159301757812, 5.361283779144287, 15.059412002563477], "min" : [-10.967256546020508, -5.9306793212890625, -13.280261993408203], "name" : "POSITION"}, {"bufferView" : 1, "byteOffset" : 12, "componentType" : 5126, "count" : 31347, "type" : "VEC3", "max" : [0.9996181130409241, 1.0000007152557373, 0.9999203681945801], "min" : [-0.9995049238204956, -0.9999514222145081, -0.9999628067016602], "name" : "NORMAL"}], "asset" : {"generator" : "Aspose.3D 22.1", "version" : "2.0"}, "buffers" : [{"uri" : "data:application/octet-stream;base64,", "byteLength" : 815032}], "bufferViews" : [{"buffer" : 0, "byteOffset" : 0, "byteLength" : 62696, "target" : 34963}, {"buffer" : 0, "byteOffset" : 62700, "byteLength" : 752328, "byteStride" : 24, "target" : 34962}], "meshes" : [{"primitives" : [{"attributes" : {"POSITION" : 1, "NORMAL" : 2}, "indices" : 0, "mode" : 4}], "name" : "\"nano_scan_2\""}], "nodes" : [{"mesh" : 0, "name" : "\"nano_scan_2\""}], "scene" : 0, "scenes" : [{"nodes" : [0]}]}