<svg version="1.1" id="Layer_1" xmlns="http://www.w3.org/2000/svg" xmlns:xlink="http://www.w3.org/1999/xlink" x="0px" y="0px"
	 width="100%" viewBox="0 0 260 132" enable-background="new 0 0 260 132" xml:space="preserve">
<path fill="#FEFEFE" opacity="1.000000" stroke="none" 
	d="
M204.000000,133.000000 
	C136.000000,133.000000 68.500008,133.000000 1.000009,133.000000 
	C1.000006,89.000008 1.000006,45.000015 1.000003,1.000015 
	C87.666656,1.000010 174.333313,1.000010 261.000000,1.000005 
	C261.000000,44.999985 261.000000,88.999969 261.000000,132.999969 
	C242.166672,133.000000 223.333328,133.000000 204.000000,133.000000 
M106.609505,114.913414 
	C122.671768,117.846367 138.759964,118.025749 154.808441,114.981827 
	C182.429276,109.742973 205.655304,96.764183 223.834076,75.147095 
	C228.162430,70.000069 228.369141,67.999878 223.782089,63.019039 
	C218.273163,57.037216 212.628708,50.998848 206.212097,46.065636 
	C177.855087,24.264225 145.549530,17.357038 110.573364,22.609875 
	C82.046753,26.894096 58.052193,39.971241 39.070995,61.850151 
	C33.517384,68.251587 33.590378,69.879303 39.170147,76.349289 
	C56.891407,96.897865 79.361931,109.264679 106.609505,114.913414 
z"/>
<path fill="#070707" opacity="1.000000" stroke="none" 
	d="
M106.187836,114.854446 
	C79.361931,109.264679 56.891407,96.897865 39.170147,76.349289 
	C33.590378,69.879303 33.517384,68.251587 39.070995,61.850151 
	C58.052193,39.971241 82.046753,26.894096 110.573364,22.609875 
	C145.549530,17.357038 177.855087,24.264225 206.212097,46.065636 
	C212.628708,50.998848 218.273163,57.037216 223.782089,63.019039 
	C228.369141,67.999878 228.162430,70.000069 223.834076,75.147095 
	C205.655304,96.764183 182.429276,109.742973 154.808441,114.981827 
	C138.759964,118.025749 122.671768,117.846367 106.187836,114.854446 
M151.180038,39.210526 
	C136.731598,30.440128 121.063301,30.998304 108.762192,40.721634 
	C96.959831,50.050735 92.160095,65.461494 96.619614,79.708412 
	C101.271126,94.568672 114.782997,104.776039 130.164917,105.049759 
	C145.947937,105.330620 159.848755,95.675095 165.047104,80.820549 
	C170.336334,65.706337 165.258163,49.973476 151.180038,39.210526 
M87.306511,48.961720 
	C88.869698,46.122978 90.432892,43.284233 92.119072,40.222141 
	C78.912331,42.955303 55.581322,58.873489 49.039337,69.509850 
	C60.809780,82.655609 74.941017,92.235397 92.381462,98.546432 
	C81.568764,77.964417 80.336555,65.775688 87.306511,48.961720 
M201.271088,80.794083 
	C205.321320,76.964493 209.371567,73.134903 213.522995,69.209633 
	C200.938721,55.260780 186.634094,45.481750 168.487839,39.216743 
	C175.903885,48.758774 179.001343,58.366112 179.041504,68.973091 
	C179.081894,79.636848 175.923309,89.296829 168.717834,98.570808 
	C181.241180,94.727570 191.344360,88.670700 201.271088,80.794083 
z"/>
<path fill="#FBFBFB" opacity="1.000000" stroke="none" 
	d="
M151.469391,39.430965 
	C165.258163,49.973476 170.336334,65.706337 165.047104,80.820549 
	C159.848755,95.675095 145.947937,105.330620 130.164917,105.049759 
	C114.782997,104.776039 101.271126,94.568672 96.619614,79.708412 
	C92.160095,65.461494 96.959831,50.050735 108.762192,40.721634 
	C121.063301,30.998304 136.731598,30.440128 151.469391,39.430965 
M116.106255,61.872154 
	C112.949928,70.709961 115.198524,78.551552 122.157974,82.976387 
	C128.527420,87.026085 137.100677,86.212021 142.419510,80.938606 
	C147.240799,76.158485 148.717926,70.287552 146.642380,63.949692 
	C144.645096,57.850815 140.310364,53.842751 133.719666,52.879871 
	C126.136040,51.771919 120.414490,54.693192 116.106255,61.872154 
z"/>
<path fill="#FAFAFA" opacity="1.000000" stroke="none" 
	d="
M87.167473,49.316513 
	C80.336555,65.775688 81.568764,77.964417 92.381462,98.546432 
	C74.941017,92.235397 60.809780,82.655609 49.039337,69.509850 
	C55.581322,58.873489 78.912331,42.955303 92.119072,40.222141 
	C90.432892,43.284233 88.869698,46.122978 87.167473,49.316513 
z"/>
<path fill="#FAFAFA" opacity="1.000000" stroke="none" 
	d="
M200.983734,81.003769 
	C191.344360,88.670700 181.241180,94.727570 168.717834,98.570808 
	C175.923309,89.296829 179.081894,79.636848 179.041504,68.973091 
	C179.001343,58.366112 175.903885,48.758774 168.487839,39.216743 
	C186.634094,45.481750 200.938721,55.260780 213.522995,69.209633 
	C209.371567,73.134903 205.321320,76.964493 200.983734,81.003769 
z"/>
<path fill="#070707" opacity="1.000000" stroke="none" 
	d="
M116.286255,61.538567 
	C120.414490,54.693192 126.136040,51.771919 133.719666,52.879871 
	C140.310364,53.842751 144.645096,57.850815 146.642380,63.949692 
	C148.717926,70.287552 147.240799,76.158485 142.419510,80.938606 
	C137.100677,86.212021 128.527420,87.026085 122.157974,82.976387 
	C115.198524,78.551552 112.949928,70.709961 116.286255,61.538567 
z"/>
</svg>