<svg xmlns="http://www.w3.org/2000/svg" version="1.1" baseProfile="full" width="1150" height="1050">
<!-- X Coordinate transform: fx(x)=(x+1.1)*454.54544-->
<!-- Y Coordinate transform: fy(y)=(1.1-y)*454.54544 -->
<g style="stroke:#ff0000;stroke-width:1.6666666;stroke-opacity:0.80;fill-opacity:00">
<!-- Group: <Default>-->
</g>
<g style="stroke:#000000;stroke-width:1.6666666;stroke-opacity:0.80;fill-opacity:00">
<!-- Group: poly-->
<path d="M 954.545,500 939.057,617.645 Z" />
<path d="M 954.545,500 939.057,382.355 Z" />
<path d="M 939.057,382.355 893.648,272.727 Z" />
<path d="M 893.648,272.727 821.412,178.588 Z" />
<path d="M 727.273,106.352 821.412,178.588 Z" />
<path d="M 617.645,60.943 727.273,106.352 Z" />
<path d="M 500,45.455 617.645,60.943 Z" />
<path d="M 500,45.455 382.355,60.943 Z" />
<path d="M 382.355,60.943 272.727,106.352 Z" />
<path d="M 272.727,106.352 178.588,178.588 Z" />
<path d="M 106.352,272.727 178.588,178.588 Z" />
<path d="M 60.943,382.355 106.352,272.727 Z" />
<path d="M 45.455,500 60.943,382.355 Z" />
<path d="M 45.455,500 60.943,617.645 Z" />
<path d="M 60.943,617.645 106.352,727.273 Z" />
<path d="M 106.352,727.273 178.588,821.412 Z" />
<path d="M 272.727,893.648 178.588,821.412 Z" />
<path d="M 382.355,939.057 272.727,893.648 Z" />
<path d="M 500,954.545 382.355,939.057 Z" />
<path d="M 500,954.545 617.645,939.057 Z" />
<path d="M 617.645,939.057 727.273,893.648 Z" />
<path d="M 727.273,893.648 821.412,821.412 Z" />
<path d="M 893.648,727.273 821.412,821.412 Z" />
<path d="M 939.057,617.645 893.648,727.273 Z" />
</g>
<g style="stroke:#000000;stroke-width:0.33333334;fill:#ff007f">

<circle class='A_chord' cx="954.545" cy="500" r="55.0"/>
<text class='A_chord' dy="0.3em" fill="rgb(255,255,255)" font-size="40" font-weight="bold" style="text-anchor:middle" x="954.545" y="500">A</text>

<circle class='F#m_chord' cx="939.057" cy="382.355" r="55.0"/>
<text class='F#m_chord' dy="0.3em" fill="rgb(255,255,255)" font-size="40" font-weight="bold" style="text-anchor:middle" x="939.057" y="382.355">F#m</text>

<circle class='D_chord' cx="893.648" cy="272.727" r="55.0"/>
<text class='D_chord' dy="0.3em" fill="rgb(255,255,255)" font-size="40" font-weight="bold" style="text-anchor:middle" x="893.648" y="272.727">D</text>

<circle class='Bm_chord' cx="821.412" cy="178.588" r="55.0"/>
<text class='Bm_chord' dy="0.3em" fill="rgb(255,255,255)" font-size="40" font-weight="bold" style="text-anchor:middle" x="821.412" y="178.588">Bm</text>

<circle class='G_chord' cx="727.273" cy="106.352" r="55.0"/>
<text class='G_chord' dy="0.3em" fill="rgb(255,255,255)" font-size="40" font-weight="bold" style="text-anchor:middle" x="727.273" y="106.352">G</text>

<circle class='Em_chord' cx="617.645" cy="60.943" r="55.0"/>
<text class='Em_chord' dy="0.3em" fill="rgb(255,255,255)" font-size="40" font-weight="bold" style="text-anchor:middle" x="617.645" y="60.943">Em</text>

<circle class='C_chord' cx="500" cy="45.455" r="55.0"/>
<text class='C_chord' dy="0.3em" fill="rgb(255,255,255)" font-size="40" font-weight="bold" style="text-anchor:middle" x="500" y="45.455">C</text>

<circle class='Am_chord' cx="382.355" cy="60.943" r="55.0"/>
<text class='Am_chord' dy="0.3em" fill="rgb(255,255,255)" font-size="40" font-weight="bold" style="text-anchor:middle" x="382.355" y="60.943">Am</text>

<circle class='F_chord' cx="272.727" cy="106.352" r="55.0"/>
<text class='F_chord' dy="0.3em" fill="rgb(255,255,255)" font-size="40" font-weight="bold" style="text-anchor:middle" x="272.727" y="106.352">F</text>

<circle class='Dm_chord' cx="178.588" cy="178.588" r="55.0"/>
<text class='Dm_chord' dy="0.3em" fill="rgb(255,255,255)" font-size="40" font-weight="bold" style="text-anchor:middle" x="178.588" y="178.588">Dm</text>

<circle class='B♭_chord' cx="106.352" cy="272.727" r="55.0"/>
<text class='B♭_chord' dy="0.3em" fill="rgb(255,255,255)" font-size="40" font-weight="bold" style="text-anchor:middle" x="106.352" y="272.727">B♭</text>

<circle class='Gm_chord' cx="60.943" cy="382.355" r="55.0"/>
<text class='Gm_chord' dy="0.3em" fill="rgb(255,255,255)" font-size="40" font-weight="bold" style="text-anchor:middle" x="60.943" y="382.355">Gm</text>

<circle class='E♭_chord' cx="45.455" cy="500" r="55.0"/>
<text class='E♭_chord' dy="0.3em" fill="rgb(255,255,255)" font-size="40" font-weight="bold" style="text-anchor:middle" x="45.455" y="500">E♭</text>

<circle class='Cm_chord' cx="60.943" cy="617.645" r="55.0"/>
<text class='Cm_chord' dy="0.3em" fill="rgb(255,255,255)" font-size="40" font-weight="bold" style="text-anchor:middle" x="60.943" y="617.645">Cm</text>

<circle class='A♭_chord' cx="106.352" cy="727.273" r="55.0"/>
<text class='A♭_chord' dy="0.3em" fill="rgb(255,255,255)" font-size="40" font-weight="bold" style="text-anchor:middle" x="106.352" y="727.273">A♭</text>

<circle class='Fm_chord' cx="178.588" cy="821.412" r="55.0"/>
<text class='Fm_chord' dy="0.3em" fill="rgb(255,255,255)" font-size="40" font-weight="bold" style="text-anchor:middle" x="178.588" y="821.412">Fm</text>

<circle class='D♭_chord' cx="272.727" cy="893.648" r="55.0"/>
<text class='D♭_chord' dy="0.3em" fill="rgb(255,255,255)" font-size="40" font-weight="bold" style="text-anchor:middle" x="272.727" y="893.648">D♭</text>

<circle class='B♭m_chord' cx="382.355" cy="939.057" r="55.0"/>
<text class='B♭m_chord' dy="0.3em" fill="rgb(255,255,255)" font-size="40" font-weight="bold" style="text-anchor:middle" x="382.355" y="939.057">B♭m</text>

<circle class='F#_chord' cx="500" cy="954.545" r="55.0"/>
<text class='F#_chord' dy="0.3em" fill="rgb(255,255,255)" font-size="40" font-weight="bold" style="text-anchor:middle" x="500" y="954.545">F#</text>

<circle class='D#m_chord' cx="617.645" cy="939.057" r="55.0"/>
<text class='D#m_chord' dy="0.3em" fill="rgb(255,255,255)" font-size="40" font-weight="bold" style="text-anchor:middle" x="617.645" y="939.057">D#m</text>

<circle class='B_chord' cx="727.273" cy="893.648" r="55.0"/>
<text class='B_chord' dy="0.3em" fill="rgb(255,255,255)" font-size="40" font-weight="bold" style="text-anchor:middle" x="727.273" y="893.648">B</text>

<circle class='G#m_chord' cx="821.412" cy="821.412" r="55.0"/>
<text class='G#m_chord' dy="0.3em" fill="rgb(255,255,255)" font-size="40" font-weight="bold" style="text-anchor:middle" x="821.412" y="821.412">G#m</text>

<circle class='E_chord' cx="893.648" cy="727.273" r="55.0"/>
<text class='E_chord' dy="0.3em" fill="rgb(255,255,255)" font-size="40" font-weight="bold" style="text-anchor:middle" x="893.648" y="727.273">E</text>

<circle class='C#m_chord' cx="939.057" cy="617.645" r="55.0"/>
<text class='C#m_chord' dy="0.3em" fill="rgb(255,255,255)" font-size="40" font-weight="bold" style="text-anchor:middle" x="939.057" y="617.645">C#m</text>

</g>
</svg>
