<svg xmlns="http://www.w3.org/2000/svg" version="1.1" baseProfile="full" width="980" height="300">
	<line stroke="rgb(0,0,0)" stroke-width="7" x1="80" x2="80" y1="59.0" y2="211.5" />
	<circle cx="255.0" cy="135.0" fill="rgb(200,200,200)" r="20" />
	<text dy="0.3em" fill="rgb(0,0,0)" font-size="20" font-weight="bold" style="text-anchor:middle" x="255.0" y="135">3</text>
	<circle cx="395.0" cy="135.0" fill="rgb(200,200,200)" r="20" />
	<text dy="0.3em" fill="rgb(0,0,0)" font-size="20" font-weight="bold" style="text-anchor:middle" x="395.0" y="135">5</text>
	<circle cx="535.0" cy="135.0" fill="rgb(200,200,200)" r="20" />
	<text dy="0.3em" fill="rgb(0,0,0)" font-size="20" font-weight="bold" style="text-anchor:middle" x="535.0" y="135">7</text>
	<circle cx="675.0" cy="135.0" fill="rgb(200,200,200)" r="20" />
	<text dy="0.3em" fill="rgb(0,0,0)" font-size="20" font-weight="bold" style="text-anchor:middle" x="675.0" y="135">9</text>
	<circle cx="885.0" cy="85.0" fill="rgb(200,200,200)" r="20" />
	<text dy="0.3em" fill="rgb(0,0,0)" font-size="20" font-weight="bold" style="text-anchor:middle" x="885.0" y="85">12</text>
	<circle cx="885.0" cy="185.0" fill="rgb(200,200,200)" r="20" />
	<text dy="0.3em" fill="rgb(0,0,0)" font-size="20" font-weight="bold" style="text-anchor:middle" x="885.0" y="185">12</text>
	<line stroke="rgb(150,150,150)" stroke-width="3" x1="150" x2="150" y1="60" y2="210" />
	<line stroke="rgb(150,150,150)" stroke-width="3" x1="220" x2="220" y1="60" y2="210" />
	<line stroke="rgb(150,150,150)" stroke-width="3" x1="290" x2="290" y1="60" y2="210" />
	<line stroke="rgb(150,150,150)" stroke-width="3" x1="360" x2="360" y1="60" y2="210" />
	<line stroke="rgb(150,150,150)" stroke-width="3" x1="430" x2="430" y1="60" y2="210" />
	<line stroke="rgb(150,150,150)" stroke-width="3" x1="500" x2="500" y1="60" y2="210" />
	<line stroke="rgb(150,150,150)" stroke-width="3" x1="570" x2="570" y1="60" y2="210" />
	<line stroke="rgb(150,150,150)" stroke-width="3" x1="640" x2="640" y1="60" y2="210" />
	<line stroke="rgb(150,150,150)" stroke-width="3" x1="710" x2="710" y1="60" y2="210" />
	<line stroke="rgb(150,150,150)" stroke-width="3" x1="780" x2="780" y1="60" y2="210" />
	<line stroke="rgb(150,150,150)" stroke-width="3" x1="850" x2="850" y1="60" y2="210" />
	<line stroke="rgb(150,150,150)" stroke-width="3" x1="920" x2="920" y1="60" y2="210" />
	<line stroke="rgb(0,0,0)" stroke-width="2.25" x1="78.5" x2="921.5" y1="60" y2="60" />
	<line stroke="rgb(0,0,0)" stroke-width="2.5" x1="78.5" x2="921.5" y1="110" y2="110" />
	<line stroke="rgb(0,0,0)" stroke-width="2.75" x1="78.5" x2="921.5" y1="160" y2="160" />
	<line stroke="rgb(0,0,0)" stroke-width="3.0" x1="78.5" x2="921.5" y1="210" y2="210" />

	<circle cx="605.0" cy="60" fill="rgb(179,71,227)" r="20" />
	<text dy="0.3em" fill="rgb(255,255,255)" font-size="20" font-weight="bold" style="text-anchor:middle" x="605.0" y="60">C</text>
	<circle cx="675.0" cy="60" fill="rgb(179,71,227)" r="20" />
	<text dy="0.3em" fill="rgb(255,255,255)" font-size="20" font-weight="bold" style="text-anchor:middle" x="675.0" y="60">C#</text>
	<circle cx="745.0" cy="60" fill="rgb(179,71,227)" r="20" />
	<text dy="0.3em" fill="rgb(255,255,255)" font-size="20" font-weight="bold" style="text-anchor:middle" x="745.0" y="60">D</text>
	<circle cx="815.0" cy="60" fill="rgb(179,71,227)" r="20" />
	<text dy="0.3em" fill="rgb(255,255,255)" font-size="20" font-weight="bold" style="text-anchor:middle" x="815.0" y="60">E♭</text>

	<circle cx="45.0" cy="60" fill="rgb(179,71,227)"  r="20" stroke="rgb(0,0,0)" stroke-width="3" />
	<text dy="0.3em" fill="rgb(0,0,0)" font-size="20" font-weight="bold" style="text-anchor:middle" x="45.0" y="60">E</text>

	<circle cx="115.0" cy="60" fill="rgb(179,71,227)" r="20" />
	<text dy="0.3em" fill="rgb(255,255,255)" font-size="20" font-weight="bold" style="text-anchor:middle" x="115.0" y="60">F</text>
	<circle cx="185.0" cy="60" fill="rgb(179,71,227)" r="20" />
	<text dy="0.3em" fill="rgb(255,255,255)" font-size="20" font-weight="bold" style="text-anchor:middle" x="185.0" y="60">F#</text>
	<circle cx="255.0" cy="60" fill="rgb(179,71,227)" r="20" />
	<text dy="0.3em" fill="rgb(255,255,255)" font-size="20" font-weight="bold" style="text-anchor:middle" x="255.0" y="60">G</text>
	<circle cx="325.0" cy="60" fill="rgb(179,71,227)" r="20" />
	<text dy="0.3em" fill="rgb(255,255,255)" font-size="20" font-weight="bold" style="text-anchor:middle" x="325.0" y="60">A♭</text>
	<circle cx="395.0" cy="60" fill="rgb(179,71,227)" r="20" />
	<text dy="0.3em" fill="rgb(255,255,255)" font-size="20" font-weight="bold" style="text-anchor:middle" x="395.0" y="60">A</text>
	<circle cx="465.0" cy="60" fill="rgb(179,71,227)" r="20" />
	<text dy="0.3em" fill="rgb(255,255,255)" font-size="20" font-weight="bold" style="text-anchor:middle" x="465.0" y="60">B♭</text>
	<circle cx="535.0" cy="60" fill="rgb(179,71,227)" r="20" />
	<text dy="0.3em" fill="rgb(255,255,255)" font-size="20" font-weight="bold" style="text-anchor:middle" x="535.0" y="60">B</text>
	<circle cx="255.0" cy="110" fill="rgb(179,71,227)" r="20" />
	<text dy="0.3em" fill="rgb(255,255,255)" font-size="20" font-weight="bold" style="text-anchor:middle" x="255.0" y="110">C</text>
	<circle cx="325.0" cy="110" fill="rgb(179,71,227)" r="20" />
	<text dy="0.3em" fill="rgb(255,255,255)" font-size="20" font-weight="bold" style="text-anchor:middle" x="325.0" y="110">C#</text>
	<circle cx="395.0" cy="110" fill="rgb(179,71,227)" r="20" />
	<text dy="0.3em" fill="rgb(255,255,255)" font-size="20" font-weight="bold" style="text-anchor:middle" x="395.0" y="110">D</text>
	<circle cx="465.0" cy="110" fill="rgb(179,71,227)" r="20" />
	<text dy="0.3em" fill="rgb(255,255,255)" font-size="20" font-weight="bold" style="text-anchor:middle" x="465.0" y="110">E♭</text>
	<circle cx="535.0" cy="110" fill="rgb(179,71,227)" r="20" />
	<text dy="0.3em" fill="rgb(255,255,255)" font-size="20" font-weight="bold" style="text-anchor:middle" x="535.0" y="110">E</text>
	<circle cx="605.0" cy="110" fill="rgb(179,71,227)" r="20" />
	<text dy="0.3em" fill="rgb(255,255,255)" font-size="20" font-weight="bold" style="text-anchor:middle" x="605.0" y="110">F</text>
	<circle cx="675.0" cy="110" fill="rgb(179,71,227)" r="20" />
	<text dy="0.3em" fill="rgb(255,255,255)" font-size="20" font-weight="bold" style="text-anchor:middle" x="675.0" y="110">F#</text>
	<circle cx="745.0" cy="110" fill="rgb(179,71,227)" r="20" />
	<text dy="0.3em" fill="rgb(255,255,255)" font-size="20" font-weight="bold" style="text-anchor:middle" x="745.0" y="110">G</text>
	<circle cx="815.0" cy="110" fill="rgb(179,71,227)" r="20" />
	<text dy="0.3em" fill="rgb(255,255,255)" font-size="20" font-weight="bold" style="text-anchor:middle" x="815.0" y="110">A♭</text>

	<circle cx="45.0" cy="110" fill="rgb(179,71,227)"  r="20" stroke="rgb(0,0,0)" stroke-width="3" />
	<text dy="0.3em" fill="rgb(0,0,0)" font-size="20" font-weight="bold" style="text-anchor:middle" x="45.0" y="110">A</text>

	<circle cx="115.0" cy="110" fill="rgb(179,71,227)" r="20" />
	<text dy="0.3em" fill="rgb(255,255,255)" font-size="20" font-weight="bold" style="text-anchor:middle" x="115.0" y="110">B♭</text>
	<circle cx="185.0" cy="110" fill="rgb(179,71,227)" r="20" />
	<text dy="0.3em" fill="rgb(255,255,255)" font-size="20" font-weight="bold" style="text-anchor:middle" x="185.0" y="110">B</text>
	<circle cx="745.0" cy="160" fill="rgb(179,71,227)" r="20" />
	<text dy="0.3em" fill="rgb(255,255,255)" font-size="20" font-weight="bold" style="text-anchor:middle" x="745.0" y="160">C</text>
	<circle cx="815.0" cy="160" fill="rgb(179,71,227)" r="20" />
	<text dy="0.3em" fill="rgb(255,255,255)" font-size="20" font-weight="bold" style="text-anchor:middle" x="815.0" y="160">C#</text>

	<circle cx="45.0" cy="160" fill="rgb(179,71,227)"  r="20" stroke="rgb(0,0,0)" stroke-width="3"  />
	<text dy="0.3em" fill="rgb(0,0,0)" font-size="20" font-weight="bold" style="text-anchor:middle" x="45.0" y="160">D</text>

	<circle cx="115.0" cy="160" fill="rgb(179,71,227)" r="20" />
	<text dy="0.3em" fill="rgb(255,255,255)" font-size="20" font-weight="bold" style="text-anchor:middle" x="115.0" y="160">E♭</text>
	<circle cx="185.0" cy="160" fill="rgb(179,71,227)" r="20" />
	<text dy="0.3em" fill="rgb(255,255,255)" font-size="20" font-weight="bold" style="text-anchor:middle" x="185.0" y="160">E</text>
	<circle cx="255.0" cy="160" fill="rgb(179,71,227)" r="20" />
	<text dy="0.3em" fill="rgb(255,255,255)" font-size="20" font-weight="bold" style="text-anchor:middle" x="255.0" y="160">F</text>
	<circle cx="325.0" cy="160" fill="rgb(179,71,227)" r="20" />
	<text dy="0.3em" fill="rgb(255,255,255)" font-size="20" font-weight="bold" style="text-anchor:middle" x="325.0" y="160">F#</text>
	<circle cx="395.0" cy="160" fill="rgb(179,71,227)" r="20" />
	<text dy="0.3em" fill="rgb(255,255,255)" font-size="20" font-weight="bold" style="text-anchor:middle" x="395.0" y="160">G</text>
	<circle cx="465.0" cy="160" fill="rgb(179,71,227)" r="20" />
	<text dy="0.3em" fill="rgb(255,255,255)" font-size="20" font-weight="bold" style="text-anchor:middle" x="465.0" y="160">A♭</text>
	<circle cx="535.0" cy="160" fill="rgb(179,71,227)" r="20" />
	<text dy="0.3em" fill="rgb(255,255,255)" font-size="20" font-weight="bold" style="text-anchor:middle" x="535.0" y="160">A</text>
	<circle cx="605.0" cy="160" fill="rgb(179,71,227)" r="20" />
	<text dy="0.3em" fill="rgb(255,255,255)" font-size="20" font-weight="bold" style="text-anchor:middle" x="605.0" y="160">B♭</text>
	<circle cx="675.0" cy="160" fill="rgb(179,71,227)" r="20" />
	<text dy="0.3em" fill="rgb(255,255,255)" font-size="20" font-weight="bold" style="text-anchor:middle" x="675.0" y="160">B</text>
	<circle cx="395.0" cy="210" fill="rgb(179,71,227)" r="20" />
	<text dy="0.3em" fill="rgb(255,255,255)" font-size="20" font-weight="bold" style="text-anchor:middle" x="395.0" y="210">C</text>
	<circle cx="465.0" cy="210" fill="rgb(179,71,227)" r="20" />
	<text dy="0.3em" fill="rgb(255,255,255)" font-size="20" font-weight="bold" style="text-anchor:middle" x="465.0" y="210">C#</text>
	<circle cx="535.0" cy="210" fill="rgb(179,71,227)" r="20" />
	<text dy="0.3em" fill="rgb(255,255,255)" font-size="20" font-weight="bold" style="text-anchor:middle" x="535.0" y="210">D</text>
	<circle cx="605.0" cy="210" fill="rgb(179,71,227)" r="20" />
	<text dy="0.3em" fill="rgb(255,255,255)" font-size="20" font-weight="bold" style="text-anchor:middle" x="605.0" y="210">E♭</text>
	<circle cx="675.0" cy="210" fill="rgb(179,71,227)" r="20" />
	<text dy="0.3em" fill="rgb(255,255,255)" font-size="20" font-weight="bold" style="text-anchor:middle" x="675.0" y="210">E</text>
	<circle cx="745.0" cy="210" fill="rgb(179,71,227)" r="20" />
	<text dy="0.3em" fill="rgb(255,255,255)" font-size="20" font-weight="bold" style="text-anchor:middle" x="745.0" y="210">F</text>
	<circle cx="815.0" cy="210" fill="rgb(179,71,227)" r="20" />
	<text dy="0.3em" fill="rgb(255,255,255)" font-size="20" font-weight="bold" style="text-anchor:middle" x="815.0" y="210">F#</text>

	<circle cx="45.0" cy="210" fill="rgb(179,71,227)"  r="20" stroke="rgb(0,0,0)" stroke-width="3" />
	<text dy="0.3em" fill="rgb(0,0,0)" font-size="20" font-weight="bold" style="text-anchor:middle" x="45.0" y="210">G</text>

	<circle cx="115.0" cy="210" fill="rgb(179,71,227)" r="20" />
	<text dy="0.3em" fill="rgb(255,255,255)" font-size="20" font-weight="bold" style="text-anchor:middle" x="115.0" y="210">A♭</text>
	<circle cx="185.0" cy="210" fill="rgb(179,71,227)" r="20" />
	<text dy="0.3em" fill="rgb(255,255,255)" font-size="20" font-weight="bold" style="text-anchor:middle" x="185.0" y="210">A</text>
	<circle cx="255.0" cy="210" fill="rgb(179,71,227)" r="20" />
	<text dy="0.3em" fill="rgb(255,255,255)" font-size="20" font-weight="bold" style="text-anchor:middle" x="255.0" y="210">B♭</text>
	<circle cx="325.0" cy="210" fill="rgb(179,71,227)" r="20" />
	<text dy="0.3em" fill="rgb(255,255,255)" font-size="20" font-weight="bold" style="text-anchor:middle" x="325.0" y="210">B</text>
	<circle cx="885.0" cy="60" fill="rgb(179,71,227)" r="20" />
	<text dy="0.3em" fill="rgb(255,255,255)" font-size="20" font-weight="bold" style="text-anchor:middle" x="885.0" y="60">E</text>
	<circle cx="885.0" cy="110" fill="rgb(179,71,227)" r="20" />
	<text dy="0.3em" fill="rgb(255,255,255)" font-size="20" font-weight="bold" style="text-anchor:middle" x="885.0" y="110">A</text>
	<circle cx="885.0" cy="160" fill="rgb(179,71,227)" r="20" />
	<text dy="0.3em" fill="rgb(255,255,255)" font-size="20" font-weight="bold" style="text-anchor:middle" x="885.0" y="160">D</text>
	<circle cx="885.0" cy="210" fill="rgb(179,71,227)" r="20" />
	<text dy="0.3em" fill="rgb(255,255,255)" font-size="20" font-weight="bold" style="text-anchor:middle" x="885.0" y="210">G</text>
</svg>